<svg xmlns="http://www.w3.org/2000/svg" xml:space="preserve" id="croma" x="0" y="0" style="enable-background:new 0 0 183.8 135.3" version="1.0" viewBox="0 0 183.8 135.3">
  <g id="Croma-Pages">
    <g id="_x30_3_x5F_Detail-Page" transform="translate(-75 -64)">
      <g id="Top-part-Copy">
        <g id="Croma_Logo" transform="translate(75 64)">
          <g id="Group-32">
            <g id="Group-3" transform="translate(0 5.899)">
              <defs>
                <filter id="Adobe_OpacityMaskFilter" width="22.5" height="25" x="20.4" y="52.5" filterUnits="userSpaceOnUse">
                  <feColorMatrix values="1 0 0 0 0  0 1 0 0 0  0 0 1 0 0  0 0 0 1 0"></feColorMatrix>
                </filter>
              </defs>
              <mask id="mask-2_00000057828122957307368920000006612808714149276805_" width="22.5" height="25" x="20.4" y="52.5" maskUnits="userSpaceOnUse">
                <g style="filter:url(#Adobe_OpacityMaskFilter)">
                  <polygon id="path-1_00000106869282011909485590000017842495414532999072_" points="20.4 52.5 42.9 52.5 42.9 77.5 20.4 77.5" style="fill-rule:evenodd;clip-rule:evenodd;fill:#fff"></polygon>
                </g>
              </mask>
              <path id="Fill-1" d="M42.9,68.7c-0.3,2.2-1,4-2.1,5.4c-1.9,2.3-4.3,3.5-7.6,3.4c-4.2-0.1-6.5-1.6-9.2-4.2
							c-2.3-2.2-3.6-5.7-3.6-8.3c0-1.8,0.5-2.9,1.3-4.8c0.9-2,1.9-3,3.2-4.3c2.5-2.4,5.5-3.5,8.6-3.5c2.5,0,4.6,0.6,6.3,1.8
							c1.3,1,2,2.2,2,3.6c0,0.8-0.3,1.4-0.7,2c-0.5,0.5-1.1,0.8-1.8,0.8c-0.7,0-1.3-0.3-1.8-0.8c-0.5-0.6-0.8-1.2-0.8-2
							c0-0.8,0.4-1.6,1.2-2.5l0.2-0.5c0-1-1.5-1.4-4.5-1.5c-3.1-0.1-5,0.7-6.2,2.1C26,57,25.8,60,25.8,64.2v2.7c0,3,0.1,5.3,0.8,6.8
							c0.9,1.9,3,3,6.1,3c2.5,0,4.6-0.7,6.2-2.1c1.6-1.4,2.6-3.4,3.1-5.9H42.9z" style="mask:url(#mask-2_00000057828122957307368920000006612808714149276805_);fill-rule:evenodd;clip-rule:evenodd;fill:#00aca4"></path>
            </g>
            <path id="Fill-4" d="M53.3,65.2c0.3-1.4,0.9-2.6,1.6-3.7c1.5-2.1,3.3-3.2,5.5-3.2c1.2,0,2.1,0.3,2.8,0.9
						c0.7,0.6,1.1,1.4,1.1,2.4c0,0.8-0.2,1.4-0.7,1.9c-0.4,0.5-1,0.7-1.7,0.7c-0.7,0-1.3-0.2-1.8-0.7c-0.5-0.5-0.7-1.1-0.7-1.9
						c0-0.9,0.5-1.7,1.3-2.3c0-0.1-2.9,0.5-4.2,1.8c-0.6,0.6-1.2,1.3-1.5,1.9c-0.3,0.6-0.7,1.5-1.1,2.8c-0.4,1.2-0.6,3-0.6,5.4v10.3
						h5.1v1H44.2v-1h4.5V60.4h-4.5v-1h5.8c1.6,0,2.7-0.5,3.4-1.5V65.2z" style="fill-rule:evenodd;clip-rule:evenodd;fill:#00aca4"></path>
            <path id="Fill-6" d="M76.5,58.2c2.6,0,5.2,1,7.7,3.1c3,2.6,4.5,5.7,4.5,9.4c0,3.4-1.3,6.3-3.8,8.9
						c-2.5,2.5-5.4,3.8-8.6,3.8c-3.4,0-6.4-1.3-8.9-3.9c-1.2-1.2-2.2-2.6-2.9-4.1c-0.7-1.5-1-3.1-1-4.5c0-1.7,0.4-3.3,1.3-5
						c0.8-1.6,2-3.1,3.5-4.4C70.8,59.3,73.6,58.2,76.5,58.2 M83.3,75.1v-8.4c0-1.7-0.1-2.9-0.3-3.7c-0.2-0.7-0.6-1.4-1.1-2
						c-1.3-1.3-3.1-2-5.6-2c-2.6,0-4.5,0.6-5.6,1.9c-1.3,1.2-1.9,3.1-1.9,5.7v8.3c0,2.8,0.6,4.8,1.9,6c0.5,0.5,1.3,0.9,2.3,1.2
						c1.1,0.3,2.2,0.5,3.4,0.5c1.3,0,2.5-0.2,3.5-0.6c1.1-0.4,1.8-0.9,2.3-1.6C82.9,79.3,83.3,77.5,83.3,75.1" style="fill-rule:evenodd;clip-rule:evenodd;fill:#00aca4"></path>
            <path id="Fill-8" d="M97.7,64.3c0.6-1.8,1.7-3.2,3.3-4.4c1.7-1.1,3.5-1.7,5.6-1.7c2.7,0,4.8,0.8,6.1,2.5
						c0.7,0.9,1.1,2.2,1.3,3.9c0.7-2,1.8-3.5,3.4-4.7c1.5-1.1,3.4-1.7,5.4-1.7c2.6,0,4.7,0.8,6.1,2.4c0.6,0.7,1.1,1.6,1.3,2.4
						c0.2,0.9,0.3,2.3,0.3,4.3v14.3h4.5v1h-13.8v-1h4.5V64.1c0-3.1-1.3-4.6-3.9-4.6c-2.4,0-4.5,1.2-6.1,3.6
						c-1.1,1.7-1.6,3.1-1.6,4.3v14.4h4.5v1h-13.7v-1h4.6V63.2c0-1.2-0.3-2.2-0.9-2.9c-0.6-0.7-1.5-1.1-2.7-1.1c-1.7,0-3.4,0.7-5,2
						c-1.5,1.4-2.6,3-3.1,5.1v15.4h4.4v1H88.6v-1H93V60.4h-4.5v-1h5.6c1.9,0,3.1-0.5,3.5-1.6V64.3z" style="fill-rule:evenodd;clip-rule:evenodd;fill:#00aca4"></path>
            <defs>
              <filter id="Adobe_OpacityMaskFilter_00000024720442300786225080000011628490058692393350_" width="26.7" height="31.6" x="135.9" y="51.7" filterUnits="userSpaceOnUse">
                <feColorMatrix values="1 0 0 0 0  0 1 0 0 0  0 0 1 0 0  0 0 0 1 0"></feColorMatrix>
              </filter>
            </defs>
            <mask id="mask-4_00000181769593418635998680000008827720723302331581_" width="26.7" height="31.6" x="135.9" y="51.7" maskUnits="userSpaceOnUse">
              <g style="filter:url(#Adobe_OpacityMaskFilter_00000024720442300786225080000011628490058692393350_)">
                <polygon id="path-3_00000171681100590289555220000003546656172155634365_" points="20.4 83.7 162.6 83.7 162.6 51.7 20.4 51.7" style="fill-rule:evenodd;clip-rule:evenodd;fill:#fff"></polygon>
              </g>
            </mask>
            <path id="Fill-10" d="M138.8,54.2h18.3v-2.5h-18.3V54.2z M152.6,69.2v-5.7c0-1.3-0.2-2.3-0.5-2.9
						c-0.4-0.6-1.1-1-2.1-1.3c-0.8-0.2-1.9-0.3-3.1-0.3c-2,0-3.5,0.3-4.6,0.9c-1,0.5-1.6,1.2-1.6,1.9c0,0.3,0.2,0.6,0.6,1
						c0.8,0.6,1.2,1.3,1.2,2.1c0,0.8-0.3,1.4-0.7,1.9c-0.5,0.5-1.1,0.7-1.8,0.7c-0.8,0-1.4-0.3-1.9-0.8c-0.5-0.5-0.8-1.2-0.8-2.1
						c0-1.8,0.9-3.3,2.7-4.6c1.8-1.3,4-1.9,6.5-1.9c2.9,0,6.1,0.5,8.4,2c1.3,0.8,1.7,1.5,2.1,2.2c0.3,0.7,0.4,1.6,0.4,2.8v10.3
						c0.1,2.9,0.3,4.7,0.4,5.1c0.2,1,1,1.4,1.8,1.4c0.9-0.1,1.4-0.5,1.9-2.4h1c-0.9,3.3-2.4,3.7-4.6,3.7c-1.4,0-2.9-0.5-3.7-1.1
						c-0.8-0.7-1.3-1.6-1.5-2.9c-0.8,1.3-1.9,2.3-3.5,2.9c-1.5,0.7-3,1-5,1c-2.9,0-5-0.6-6.4-1.8c-1.3-1.1-2-2.5-2-4
						c0-1.3,0.5-2.5,1.4-3.8c1-1.2,2.1-2.1,3.5-2.7c1.5-0.6,2.9-1,5.1-1.4c2.1-0.3,4.2-0.5,6.3-0.5H152.6z M152.6,70.1h-0.3
						c-5,0-8.2,0.6-9.8,1.8c-1.1,0.8-1.6,2.3-1.6,4.4c0,2,0.3,3.5,1.1,4.3c0.7,0.8,1.9,1.3,3.7,1.3c1.6,0,3-0.4,4.3-1.1
						c1.3-0.7,2.2-1.7,2.7-2.9V70.1z" style="mask:url(#mask-4_00000181769593418635998680000008827720723302331581_);fill-rule:evenodd;clip-rule:evenodd;fill:#00aca4"></path>
          </g>
          <polygon id="Path" points="138.8 54.2 157.1 54.2 157.1 51.7 138.8 51.7" style="fill-rule:evenodd;clip-rule:evenodd;fill:#00aca4"></polygon>
        </g>
      </g>
    </g>
  </g>
</svg>
